<svg xmlns="http://www.w3.org/2000/svg" viewBox="0 0 313.53 373.86"><defs><style>.cls-1{fill:#1c1c1c;}</style></defs><g id="Layer_2" data-name="Layer 2"><g id="Layer_1-2" data-name="Layer 1"><path class="cls-1" d="M235.41,226.48A81.08,81.08,0,0,1,219.47,249c-15-17.92-33.83-27.6-57.38-26.76s-41.71,11.8-55.5,30.9c-9-7.7-15.71-17-21.09-28.11-6.66,6.31-13.26,12.24-19.44,18.59-3,3-2.29,5.72.53,10,5,7.68,10.18,15.34,14.72,23.32a103.93,103.93,0,0,1,12.31,32.19q4.68,25-12.16,43.89A86.75,86.75,0,0,1,56.27,372a10.82,10.82,0,0,1-12.74-1.84,10.67,10.67,0,0,1-2-12.72,18.67,18.67,0,0,1,5.07-5c5.38-4.07,11.3-7.52,16.27-12,9.33-8.46,12.16-19.07,8.4-31.26a127.53,127.53,0,0,0-19.72-38.62c-3.44-4.63-7-9.19-8.48-14.95C40.32,245,43.51,236,50.42,228c2.3-2.65,4.76-5.16,7.37-8-.81-.49-1.6-1-2.41-1.46a40.87,40.87,0,0,1-13.26-11.37c-5.66-7.78-5.87-16.44-4-25.38,1.74-8.3,5.42-15.83,9.5-23.2a152.86,152.86,0,0,0,7.6-14.93,25.45,25.45,0,0,0,1.68-9.43c.11-21.38-15-40-29.6-45.56A29.77,29.77,0,0,0,13,86.8C6.16,87.59.65,83.28.05,76.76c-.57-6.11,4-11.09,10.7-11.83,19.41-2.15,34.82,5.54,47.69,19.37,9.9,10.65,17,22.8,19.61,37.31a57.78,57.78,0,0,1-6.81,40.12c-4.4,7.73-9.32,15.27-11.54,24.07-1.56,6.18-.57,9.21,4.86,12.34,4.66,2.69,9.63,4.84,14.83,7.41-3.54-23.78,1-45.24,15.21-64.18s33.14-29.56,56.7-32.79v-3.24q0-45.93,0-91.85c0-7.25,4.7-12.37,12.22-13.4,5.76-.78,12,3.5,13.73,9.59a15.69,15.69,0,0,1,.43,4.28q0,46.19,0,92.38v3.38c22.19,5.14,39.84,16.87,52.28,35.87s16,39.69,11.78,62.46c6.52-3.64,13.18-5.86,18.05-11.06,2.57-2.73,2.38-6.22,1.08-9.17a162.85,162.85,0,0,0-8.74-17c-4.86-8.22-10.53-16-12.67-25.57a61.13,61.13,0,0,1,2.6-35.9c6.41-16.73,16.67-30.53,32.44-39.63,8.84-5.11,18.55-6.88,28.68-6.27,6.31.38,10.57,5.43,10.32,11.91a10.7,10.7,0,0,1-11.08,10c-14.18-.5-24.14,6.65-32.08,17.45-8.3,11.29-11.56,24-9.35,37.82.53,3.33,2.57,6.51,4.32,9.53,2.86,4.91,6.17,9.55,9.06,14.44,4.3,7.24,7.61,14.86,8.91,23.31,1.91,12.45-3.1,21.75-12.62,29.15-1.85,1.43-3.81,2.7-4.87,3.46,2.2,2.66,4.37,5.5,6.77,8.15,4.15,4.6,7.87,9.38,9.05,15.71,1.35,7.31.41,14.23-3.6,20.51-5.24,8.22-10.44,16.44-14.23,25.47-3.42,8.17-6.59,16.38-7.75,25.26-1.08,8.35,1.39,15.49,6.73,21.77,5.86,6.89,13.5,11.32,21.49,15.24,7.07,3.45,9,11.31,4.2,17.16-3,3.62-7.18,5.21-11.41,3.41-16.9-7.21-31.7-17.08-39.35-34.75-5.05-11.66-4.56-23.73-1.43-35.77C240.56,286.12,248,271,257,256.67c.72-1.15,1.48-2.27,2.14-3.45,1.62-2.88,1.34-5.7-1-7.93-3.53-3.34-7.23-6.51-11-9.6S239.48,229.67,235.41,226.48Zm-94-17.56c.73.84,1.32,2,2.23,2.38a3.84,3.84,0,0,0,3-.41,6.08,6.08,0,0,0,1.77-2.32c4.39-7.67,9-15.22,13-23.08,6.87-13.39,13.4-27,19.94-40.51a6.72,6.72,0,0,0,.23-4.28,3,3,0,0,0-2.58-1.32,6.91,6.91,0,0,0-3.12,3,584.43,584.43,0,0,1-33.17,63.8C142.26,206.9,142,207.74,141.39,208.92Zm-21.5-27.47c4-2.72,7.62-4.81,10.83-7.38a122.63,122.63,0,0,0,9.68-9c1.34-1.34,1.11-3-.3-4.31s-3-.88-4.29.39c-.32.31-.58.69-.89,1-6.22,6.71-13.74,11.63-21.89,15.61-1.71.84-3.24,1.53-3.31,3.75s1.4,3.28,3.18,3.84q14.43,4.5,28.92,8.82a2.77,2.77,0,0,0,3.68-1.89,3,3,0,0,0-1.89-3.94,13.08,13.08,0,0,0-1.54-.47Zm84.56-7.1c-1.77.8-2.93,1.21-4,1.81-5.72,3.22-11.5,6.33-17.07,9.8-2.69,1.68-3.1,3.78-1.68,5.34,2,2.15,3.63.79,5.37-.55a63.71,63.71,0,0,1,22.6-11.21c2.43-.65,4.48-1.9,4.85-4.49.35-2.41-1.8-3.38-3.54-4.25-8.55-4.25-17.15-8.4-25.73-12.61-1.94-1-3.35-.33-4.25,1.45s.05,3.15,1.61,4,3.4,1.66,5.1,2.49ZM197,124.83a87.77,87.77,0,0,1,36.12,48.37Q226.75,140.29,197,124.83Z"/><path class="cls-1" d="M164.57,245.83a45.45,45.45,0,0,1-.13,90.9c-23.73,0-45.36-18.68-45.34-45.53A45.14,45.14,0,0,1,164.57,245.83Zm39.13,44.38c1.28-16.89-10-33.33-24-34.81C193.93,263,201.82,274.58,203.7,290.21Z"/></g></g></svg>