<svg xmlns="http://www.w3.org/2000/svg" viewBox="0 0 767.28 916.89"><defs><style>.cls-1{fill:#1c1c1c;}</style></defs><g id="Layer_2" data-name="Layer 2"><g id="Layer_1-2" data-name="Layer 1"><g id="logo"><path class="cls-1" d="M596.31,510.26c13.27-9.23,28-17.06,39.14-28.38,4.58-4.64,4.58-18.23,1.34-25.31a432.14,432.14,0,0,0-31.85-57.3c-63.67-96.89,21-233.77,112.1-241.84,8-.71,16.2-1.44,24.13-.56,14.43,1.59,28,15.75,25.89,27.53-2.62,14.72-12.73,22.74-27.54,24-66,5.8-115.89,70.59-102,135.43,3.36,15.67,15.05,29.47,22.37,44.39,10.11,20.59,22.09,40.66,29,62.32,10.29,32.43.42,60.67-27.81,80.6-12.31,8.69-12.91,14.35-1.47,24.91C695.1,588.87,696.5,619,672.49,661c-17.59,30.75-31.51,63.91-44.13,97.11s.21,61.28,26.86,82.69c12,9.67,26,17,39.16,25.24,15.88,10,20.27,22.61,12.46,36-9.42,16.21-21.89,19.1-39,8.77-13.8-8.33-28.3-15.82-41-25.57-48.71-37.33-66.43-87.73-46.76-145.68,12.68-37.37,30.71-73.15,48.92-108.3,8.14-15.69,8.87-26.49-4.85-37.49-10.34-8.29-20.63-16.65-31-25-17.36-14-16.93-13.72-28.45,4.52-7.59,12-16.65,23.12-26.06,36-5-4.38-8.65-7-11.63-10.16-71.88-76.89-187.91-73.93-255.56,7.39-10.42,12.52-17,11-25.25-.17-9.56-13-19.76-25.58-28-39.37-6.47-10.85-11.47-15.11-21.8-4.28-9.13,9.57-19.4,18.06-29.24,27-12.31,11.14-12,21.42-3.19,36.18,20.07,33.46,41,67.2,55,103.35,26.29,67.49,7.71,121-51.17,163.28-8.89,6.37-18.41,11.87-27.68,17.7-15.66,9.82-24.36,8.25-35.11-6.23-9.35-12.58-7.44-25.85,5.9-36.26,14.51-11.32,30.44-21,43.92-33.39,23.47-21.56,31.73-49.23,18.91-78.69-14-32-29.19-64.08-48.49-93C96.22,619,95.54,590.83,130.82,552.85c8.87-9.55,9.46-14.68-2.36-22.43-33.58-22-44.54-49.17-32.86-88,6.9-22.92,18-44.88,29.34-66.09,39.6-73.83-12.58-163.72-96-164.36C14.38,211.9,1.52,202,.19,189.93-1.47,175,8.05,163.19,25.48,161c39.67-5.11,74.54,6.77,103.33,33.92,50.84,48,77.88,104.51,55.79,175.47-5.41,17.38-15.91,33.17-24.14,49.66-2.57,5.15-5.62,10.08-8,15.31-17.14,37.57-4.4,59.15,40.46,65.35,0-5.69.3-11.11,0-16.5C186.2,380.46,250.41,293.57,351.68,271c14.82-3.31,19.77-9,19.61-24.12-.76-68.64-.52-137.3-.24-205.95,0-7.83.65-16.69,4.3-23.24C382.5,4.84,394-2.71,409.82.91c12.74,2.91,23.38,18.32,23.41,34.7.11,69.23.58,138.47-.44,207.68-.28,19,4.35,28.15,24.23,34.09,88.68,26.48,147.73,120.83,135.56,212.79-.71,5.38-.55,10.86-.8,16.3Zm-149.5-160c-2.19-2.42-6-7.73-6.79-7.31-4.59,2.43-10.13,5.35-12.32,9.65-16.5,32.29-31.92,65.12-48.44,97.38-8.91,17.4-19.82,33.76-28.73,51.15-2.32,4.51-.54,11.12-.64,16.76,5-2.7,10-5.23,14.85-8.19,1.29-.8,1.84-2.86,2.64-4.39Q405.21,432.6,443,359.83C444.28,357.31,445.11,354.56,446.81,350.3ZM296.7,444.76c8.23-6.06,12.75-9.16,17-12.58,8.5-6.84,17.63-13.16,24.93-21.13,3.22-3.53,2.63-10.56,3.77-16-4.93,1.31-10.65,1.43-14.63,4.13-16.61,11.26-32.85,23.1-48.88,35.19-4.18,3.15-10.12,8.26-9.77,11.95.39,4.05,6.49,9.26,11.18,10.91,18.46,6.46,37.2,12.28,56.15,17.09,5.53,1.4,12.12-1.38,18.23-2.25-4.5-4.64-8.18-11.28-13.67-13.53C328.12,453.26,314.36,450.07,296.7,444.76ZM496,427.17c-9,4.7-14,7-18.67,9.86-10.24,6.34-20.67,12.5-30.18,19.83-2.62,2-2.27,7.89-3.28,12,4.09.46,9,2.6,12.13,1.1,20.14-9.63,40-19.95,59.75-30.28,11.49-6,12.28-13.9,1-20.28-18.52-10.44-37.59-20-57-28.76-4.44-2-11,.74-16.61,1.3,3.25,4.63,5.52,10.92,10,13.56C465.29,412.74,478.41,418.46,496,427.17Zm61.33-37.67c-8.67-30.2-26.88-52.76-53.88-68Z"/><path class="cls-1" d="M511.79,713.15c-.14,62.94-48,111.82-109.69,111.92-60.74.1-109.65-49-109.7-110.17s48.67-110.78,109.1-111C462.84,603.72,511.93,652.33,511.79,713.15Zm-14.15-19.64c-5.55-33.63-21.15-54.62-40.63-57.39Z"/></g></g></g></svg>